<svg width="72" height="27" viewBox="0 0 72 27" fill="none" xmlns="http://www.w3.org/2000/svg">
<path fill-rule="evenodd" clip-rule="evenodd" d="M22.0184 8.56113C18.7463 6.64103 16.5655 6.20245 14.2293 6.20245C12.9312 6.20245 11.4767 6.53049 11.2689 7.84711C11.1126 8.99881 12.1515 9.27426 14.3332 9.7681C18.3316 10.6461 22.3816 11.7987 22.9001 16.1337L25.0827 4.77441L22.0184 8.56113ZM52.1402 8.89006L58.1107 0.768398H66.9911L54.4248 16.4082L52.5557 26.1754H44.9736L47.102 15.2556L43.2074 8.17604L38.1186 14.0487L44.9736 26.1754H35.8339L30.4832 16.0793L28.6647 26.1754H20.9795L22.0699 20.359C19.993 25.3527 16.0985 27 10.8019 27C6.33549 27 2.23318 25.572 0 22.9922L4.2062 17.7801C6.02294 19.6458 8.82884 20.6335 11.7884 20.6335C13.8644 20.6335 15.1119 19.8108 15.1626 18.7125C15.2149 16.8468 12.1515 16.5723 9.3474 15.7495C6.17921 14.8171 2.80413 12.5671 3.68675 7.84711C4.36159 4.2253 7.425 0 15.2149 0C19.5774 0 22.7971 1.04206 25.445 3.01832L25.8596 0.768398H33.5475L31.3134 11.7987L40.3509 0.768398H47.9855L52.1402 8.89006Z" fill="#E81C24"/>
<path d="M69.396 3.10824H70.0113C70.2662 3.10824 70.4269 2.98523 70.4908 2.74098C70.5539 2.50208 70.4677 2.38353 70.2315 2.38353H69.586L69.396 3.10824ZM68.6057 4.27332L69.2122 1.96902H70.3816C70.8984 1.96902 71.0937 2.20703 70.9685 2.68482C70.8771 3.03158 70.7048 3.23928 70.4509 3.3097C70.6551 3.3623 70.7243 3.51295 70.6595 3.76165L70.5246 4.27332H70.0415L70.1534 3.84723C70.2102 3.63061 70.1268 3.52186 69.9021 3.52186H69.2868L69.0896 4.27332H68.6057ZM70.3452 1.36553C69.8657 1.36553 69.412 1.53847 68.9804 1.88433C68.5498 2.23109 68.2692 2.64917 68.1404 3.14034C68.0117 3.6315 68.072 4.05047 68.3198 4.39723C68.5684 4.74488 68.9334 4.91781 69.4128 4.91781C69.8914 4.91781 70.3452 4.74488 70.775 4.39723C71.2038 4.05047 71.4835 3.6315 71.6123 3.14034C71.741 2.65095 71.6815 2.23377 71.4347 1.88612C71.1887 1.53847 70.8247 1.36553 70.3452 1.36553ZM70.4233 1.08206C70.9854 1.08206 71.4125 1.28263 71.7073 1.68466C72.0012 2.08669 72.074 2.57161 71.9248 3.14034C71.7757 3.70817 71.448 4.19398 70.9419 4.59779C70.4366 5.00071 69.9021 5.20306 69.3409 5.20306C68.7726 5.20306 68.342 5.00071 68.0454 4.59869C67.7506 4.19666 67.6787 3.71084 67.8279 3.14034C67.977 2.57161 68.3056 2.08669 68.8126 1.68466C69.3187 1.28263 69.8559 1.08206 70.4233 1.08206Z" fill="#E81C24"/>
</svg>
